<svg width="66" height="62" viewBox="0 0 66 62" fill="none" xmlns="http://www.w3.org/2000/svg">
<path d="M51.5944 22.7524C52.308 24.7436 52.6769 27.3383 52.6769 31.0739C52.6769 40.7967 50.7667 49.4233 43.1142 58.9144L43.093 58.9406L43.0755 58.9695C42.6127 59.7349 42.8545 60.5785 43.3796 61.0623C43.9194 61.5596 44.7856 61.7069 45.534 61.1129L45.5557 61.0957L45.5753 61.0762C57.8739 48.8734 65.5 36.169 65.5 21.0493C65.5 14.0589 64.0384 8.916 61.3055 5.51263C58.5573 2.09026 54.5832 0.499999 49.7374 0.499999C45.7919 0.499998 42.5428 1.47841 40.2736 3.44853C37.9935 5.42802 36.7694 8.35064 36.7694 12.0911C36.7694 15.3908 37.7687 18.1932 39.7067 20.1726C41.6465 22.154 44.4729 23.2556 48.0177 23.2556C49.358 23.2556 50.5531 23.0915 51.5944 22.7524ZM16.125 22.7524C16.8386 24.7436 17.2075 27.3383 17.2075 31.0739C17.2075 40.7966 15.2973 49.4233 7.64477 58.9144L7.6236 58.9406L7.60616 58.9695C7.1433 59.7349 7.3851 60.5785 7.91018 61.0623C8.44996 61.5596 9.3162 61.7069 10.0646 61.1129L10.0863 61.0957L10.1059 61.0762C22.4045 48.8734 30.0306 36.1689 30.0306 21.0493C30.0306 14.0589 28.5691 8.916 25.8361 5.51262C23.0879 2.09025 19.1138 0.499996 14.268 0.499996C10.3225 0.499995 7.07344 1.47841 4.80419 3.44853C2.52414 5.42802 1.3 8.35063 1.3 12.0911C1.3 15.3908 2.29931 18.1932 4.23729 20.1726C6.17712 22.154 9.0035 23.2556 12.5483 23.2556C13.8886 23.2556 15.0837 23.0915 16.125 22.7524Z" stroke="black"/>
</svg>
